<?xml version="1.0" standalone="no"?>
<!DOCTYPE svg PUBLIC "-//W3C//DTD SVG 20010904//EN"
 "http://www.w3.org/TR/2001/REC-SVG-20010904/DTD/svg10.dtd">
<svg version="1.0" xmlns="http://www.w3.org/2000/svg"
 width="928.000000pt" height="1120.000000pt" viewBox="0 0 928.000000 1120.000000"
 preserveAspectRatio="xMidYMid meet">

<g transform="translate(0.000000,1120.000000) scale(0.100000,-0.100000)"
fill="#000000" stroke="none">
<path d="M5145 9162 c59 -20 172 -122 137 -122 -11 0 -22 4 -24 8 -1 4 -20 21
-40 36 -21 16 -35 32 -32 37 3 5 -1 6 -9 3 -8 -3 -18 -1 -22 5 -7 13 -81 15
-89 3 -2 -4 -21 -9 -42 -10 -20 -2 -45 -7 -55 -12 -10 -6 -36 -11 -59 -12 -22
-1 -43 -5 -46 -9 -6 -10 -63 7 -83 25 -12 11 -26 13 -55 6 -27 -6 -53 -4 -89
7 -37 11 -71 13 -124 8 -40 -4 -71 -10 -69 -14 6 -8 -37 -12 -142 -12 -44 0
-70 -4 -67 -9 4 -6 -2 -11 -12 -12 -10 0 -29 -2 -43 -4 -14 -1 -63 -5 -110 -7
-47 -3 -85 -6 -85 -7 0 -2 -18 -4 -40 -5 -22 -1 -53 -7 -68 -14 -16 -6 -33
-11 -39 -11 -6 0 -9 -3 -5 -6 13 -14 -60 -72 -108 -84 -27 -7 -55 -17 -61 -22
-7 -5 -25 -10 -40 -13 -16 -2 -46 -11 -66 -19 -21 -9 -52 -18 -70 -20 -47 -6
-120 -40 -153 -70 -15 -14 -23 -26 -17 -26 6 0 9 -9 7 -20 -4 -22 -7 -27 -102
-144 -35 -42 -75 -98 -90 -124 -15 -26 -31 -48 -35 -50 -3 -2 -31 -33 -60 -70
-52 -65 -80 -119 -93 -175 -3 -15 -22 -50 -41 -77 -20 -27 -33 -53 -30 -58 2
-4 -4 -39 -14 -77 -21 -76 -24 -171 -9 -250 5 -27 14 -86 19 -130 14 -106 44
-203 75 -240 l25 -30 -24 55 c-46 107 -42 121 13 42 28 -41 51 -82 51 -92 0
-10 7 -25 15 -34 8 -8 15 -17 15 -20 0 -3 11 -16 24 -29 19 -19 25 -39 30 -98
9 -99 25 -228 32 -258 4 -21 -2 -18 -47 23 -46 41 -56 46 -99 46 -37 0 -53 -5
-72 -25 -28 -28 -118 -268 -118 -315 0 -16 9 -56 20 -89 18 -51 20 -79 18
-217 -3 -163 8 -240 38 -265 11 -9 14 -6 14 14 0 29 35 67 61 67 10 0 22 8 28
18 9 16 12 16 38 1 15 -9 50 -20 76 -23 51 -8 65 -23 48 -54 -7 -13 -18 -18
-38 -15 -25 4 -30 0 -42 -34 -8 -21 -18 -41 -23 -44 -9 -6 -15 -27 -17 -56 -1
-6 -8 -18 -16 -27 -13 -13 -12 -17 15 -36 42 -30 97 -36 144 -16 21 9 42 14
46 11 4 -3 8 -35 9 -72 1 -84 19 -231 37 -298 7 -27 20 -83 28 -122 14 -67 35
-127 57 -163 5 -8 15 -26 21 -40 7 -14 18 -31 25 -38 7 -7 16 -24 19 -38 4
-13 14 -29 24 -34 10 -5 21 -23 25 -39 4 -19 11 -28 20 -25 7 3 16 -3 19 -13
7 -26 26 -136 23 -138 -1 -1 -19 -12 -39 -24 -55 -33 -231 -197 -281 -263 -68
-87 -116 -209 -177 -449 -10 -39 -17 -48 -43 -57 -18 -5 -93 -33 -167 -62
-135 -51 -169 -68 -268 -130 -41 -26 -72 -36 -140 -46 -48 -8 -161 -36 -252
-64 -137 -42 -202 -69 -385 -162 -121 -61 -249 -131 -285 -154 -69 -47 -234
-191 -270 -237 l-22 -27 48 -68 c378 -535 911 -1000 1489 -1298 459 -237 961
-388 1480 -446 77 -8 244 -13 465 -13 301 0 366 3 510 23 293 40 621 115 825
189 77 29 80 31 77 59 -2 16 -9 35 -15 42 -15 19 -51 10 -62 -16 -8 -18 -15
-22 -35 -17 -28 7 -42 24 -35 42 3 7 7 19 10 26 3 7 -5 19 -19 26 -21 11 -28
11 -55 -5 -30 -17 -32 -17 -48 -1 -17 17 -17 19 -1 47 16 28 16 31 -2 52 -16
20 -22 21 -39 10 -29 -17 -44 -15 -59 8 -11 18 -9 22 18 38 51 29 35 79 -23
69 -61 -10 -83 43 -24 59 23 7 33 17 35 33 4 28 -12 41 -50 41 -28 0 -33 10
-20 41 4 10 18 15 36 15 53 -3 77 47 30 64 -39 15 -28 46 16 43 59 -4 80 4 76
30 -3 12 -5 25 -5 30 -1 4 -8 7 -16 7 -18 0 -19 9 -1 33 14 18 16 18 41 1 25
-17 27 -16 48 4 20 20 20 22 3 41 -17 19 -17 20 9 37 25 16 27 16 49 -5 28
-27 44 -27 67 1 15 16 16 24 8 35 -15 17 -10 21 27 29 26 5 32 2 42 -21 16
-35 52 -31 70 8 11 22 19 28 40 25 22 -2 28 -9 30 -34 4 -44 39 -54 68 -19 18
22 24 24 47 16 30 -12 31 -14 17 -40 -14 -27 24 -60 48 -43 32 23 43 24 62 7
18 -17 19 -19 3 -46 -24 -40 -4 -63 48 -54 32 6 39 3 49 -16 11 -19 9 -24 -16
-44 -25 -20 -27 -25 -14 -40 10 -12 22 -15 46 -11 27 6 32 3 38 -16 10 -39 7
-46 -24 -53 -35 -8 -43 -18 -35 -44 3 -12 19 -21 41 -26 26 -4 34 -10 30 -21
-3 -9 -6 -22 -6 -30 0 -9 -11 -14 -35 -14 -24 0 -37 -6 -45 -20 -9 -18 -7 -23
19 -38 33 -18 38 -37 17 -64 -11 -15 -17 -16 -44 -6 -24 9 -34 9 -46 -1 -20
-17 -20 -35 -2 -50 18 -15 120 35 310 151 487 298 901 679 1233 1133 123 169
343 538 343 576 0 7 -7 32 -16 56 -14 36 -25 47 -88 79 -39 21 -95 53 -124 72
-29 18 -147 79 -261 136 -250 123 -487 206 -851 296 -135 33 -285 72 -335 85
-49 14 -153 36 -230 50 -77 14 -149 28 -161 31 -15 4 -26 23 -42 73 -57 177
-141 303 -291 434 -132 116 -215 159 -331 172 -58 6 -116 24 -82 25 6 0 12 6
12 13 0 7 8 22 18 33 17 19 64 192 78 287 3 26 10 47 15 47 5 0 9 9 9 20 0 11
3 20 8 20 4 0 5 24 4 54 l-4 55 35 -11 c20 -6 47 -7 63 -3 29 8 28 8 -14 17
-63 14 -74 37 -62 129 5 41 10 100 10 131 l0 57 32 -10 c38 -11 55 -1 126 70
53 53 75 106 51 122 -8 5 -17 9 -20 9 -5 0 -60 -72 -93 -122 -10 -16 -31 -35
-47 -44 -26 -13 -30 -13 -35 1 -6 15 11 205 23 252 l5 23 20 -25 c41 -52 62
21 26 88 -9 17 -10 18 -22 2 -10 -14 -12 -2 -11 71 3 151 4 163 24 183 11 11
27 33 35 48 20 36 45 64 76 86 35 24 3 22 -38 -3 l-33 -21 3 88 c3 48 12 114
21 146 9 32 17 68 17 81 0 22 29 102 30 82 0 -5 9 -1 19 8 11 10 17 25 14 35
-3 11 0 22 6 25 6 4 11 16 11 27 0 10 4 19 9 19 5 0 14 13 21 30 7 16 16 28
20 25 4 -3 13 17 20 43 7 26 17 52 22 58 5 7 11 22 13 34 2 13 14 29 26 38 13
9 19 21 16 33 -3 11 -1 22 4 25 5 3 9 16 9 30 0 18 4 23 13 17 7 -4 5 4 -5 18
-17 26 -10 57 11 45 7 -5 11 4 11 23 0 20 -5 31 -14 31 -11 0 -23 24 -30 60
-1 3 -5 11 -10 18 -16 25 9 33 155 48 44 4 119 33 119 45 0 5 -7 6 -15 3 -20
-8 -19 6 1 35 32 45 46 112 33 161 -11 43 -10 49 20 102 59 104 70 256 26 352
l-15 31 6 -35 c3 -19 10 -62 15 -94 11 -68 1 -134 -31 -197 -12 -22 -18 -44
-15 -49 3 -5 0 -12 -6 -16 -8 -4 -9 -3 -5 4 11 18 0 14 -15 -5 -10 -11 -10
-14 -1 -9 8 4 12 1 12 -10 0 -13 -3 -14 -15 -4 -8 7 -15 20 -15 29 -1 13 -3
12 -12 -4 -11 -18 -14 -14 -38 37 -15 32 -30 55 -33 51 -10 -9 -38 18 -30 30
3 5 2 7 -4 4 -12 -7 -78 61 -87 91 -4 12 -11 22 -16 22 -4 0 -15 17 -23 38
-16 39 -116 142 -139 142 -7 0 -26 11 -41 24 -16 14 -35 22 -43 19 -8 -3 -14
-1 -14 5 0 5 -22 24 -48 41 -26 16 -79 62 -117 100 -56 56 -72 68 -86 60 -14
-7 -24 -3 -43 16 -14 14 -31 25 -39 25 -7 0 -26 13 -42 30 -15 16 -32 27 -36
24 -4 -2 -22 16 -39 40 -34 50 -53 67 -43 39 3 -10 -13 0 -38 24 -24 23 -68
64 -96 91 -29 27 -65 52 -80 55 -70 16 -75 16 -28 -1z m1255 -1144 c0 -7 -8
-22 -17 -33 -14 -18 -15 -18 -9 -2 3 10 6 25 6 33 0 8 5 14 10 14 6 0 10 -6
10 -12z m-1353 -55 c2 -6 13 -9 23 -6 11 3 20 0 20 -6 0 -6 5 -11 11 -11 5 0
7 5 3 11 -5 8 -1 8 14 0 11 -6 24 -20 27 -31 3 -11 11 -20 16 -20 6 0 7 5 4
10 -3 6 -2 10 4 10 6 0 9 6 7 13 -1 6 -1 9 2 4 7 -13 62 -38 72 -32 5 3 11 1
15 -4 4 -7 15 -7 30 -1 14 5 32 7 40 4 10 -4 15 0 15 10 0 19 20 22 20 4 0 -7
16 -21 35 -30 28 -14 33 -14 28 -3 -3 8 -2 15 1 15 12 0 66 -64 66 -77 0 -7 5
-13 11 -13 5 0 8 -4 4 -9 -3 -5 3 -16 12 -23 10 -7 35 -46 55 -86 31 -61 34
-70 17 -61 -20 10 -20 9 -5 -19 8 -16 12 -32 9 -35 -3 -4 0 -13 7 -22 11 -13
10 -14 -4 -9 -12 5 -15 2 -10 -11 4 -9 2 -20 -4 -24 -7 -4 -6 -19 4 -46 8 -22
17 -56 20 -75 3 -19 11 -41 16 -47 7 -9 7 -13 0 -13 -6 0 -16 8 -21 18 -6 9
-11 12 -11 6 0 -6 9 -19 20 -29 11 -10 18 -20 16 -23 -3 -2 3 -25 13 -51 10
-25 22 -72 25 -103 4 -32 12 -58 16 -58 5 0 7 -13 4 -29 -3 -16 -2 -31 3 -34
14 -9 -1 -117 -18 -128 -12 -8 -12 -10 1 -19 13 -8 29 -140 30 -254 0 -16 6
-36 12 -43 6 -8 11 -46 11 -86 -1 -101 -2 -107 -24 -135 -10 -14 -19 -31 -19
-39 0 -8 -4 -11 -10 -8 -5 3 -10 -2 -10 -12 0 -11 -5 -24 -11 -30 -13 -13 -4
-47 10 -38 5 3 13 0 17 -6 5 -8 3 -9 -6 -4 -10 6 -12 3 -7 -14 3 -13 3 -20 0
-17 -4 3 -13 -3 -21 -15 -8 -11 -11 -23 -7 -27 3 -3 10 0 15 8 16 25 12 -37
-4 -68 -8 -15 -26 -38 -40 -51 -14 -14 -26 -30 -26 -38 0 -7 -9 -21 -21 -31
-11 -9 -25 -27 -30 -40 -5 -13 -13 -21 -17 -18 -4 2 -14 -10 -22 -27 l-15 -32
-3 28 c-4 34 -22 36 -22 2 0 -14 -4 -25 -10 -25 -5 0 -10 -12 -11 -27 -1 -25
-2 -25 -7 -7 -6 17 -11 20 -29 13 -13 -5 -23 -15 -23 -24 0 -9 -9 -25 -20 -37
-13 -14 -20 -17 -20 -8 0 9 -6 8 -20 -5 -11 -10 -20 -22 -20 -26 0 -13 -46
-59 -59 -59 -6 0 -11 9 -11 20 0 11 -4 20 -10 20 -5 0 -10 10 -10 21 0 12 -12
36 -27 54 -16 18 -36 42 -45 54 -10 11 -24 21 -32 21 -7 0 -19 7 -26 15 -16
19 -31 20 -24 1 7 -18 -33 -10 -57 10 -9 8 -18 12 -21 9 -3 -3 -18 1 -34 9
-21 11 -30 12 -35 4 -6 -9 -12 -8 -23 1 -12 10 -16 10 -16 2 0 -8 -10 -6 -30
6 -16 9 -30 21 -30 25 0 4 -7 8 -15 8 -8 0 -15 5 -15 11 0 5 -4 8 -9 4 -5 -3
-13 0 -16 6 -4 5 -14 8 -22 5 -8 -3 -24 0 -35 8 -11 8 -27 12 -34 9 -8 -3 -14
-1 -14 5 0 6 -9 8 -21 5 -14 -4 -17 -8 -9 -13 7 -4 9 -13 5 -20 -5 -8 -11 -5
-22 9 -12 18 -18 19 -36 9 -31 -16 -70 -18 -91 -2 -22 15 -11 38 14 31 11 -3
32 7 52 23 31 25 40 27 130 28 104 2 122 -6 91 -40 -18 -21 -18 -21 15 -15 35
7 92 42 92 57 0 27 -132 90 -189 90 -15 0 -48 -10 -72 -22 -36 -19 -54 -22
-97 -17 -80 10 -94 16 -136 54 -22 19 -42 31 -45 27 -3 -5 -28 -14 -56 -22
-27 -7 -55 -17 -62 -22 -13 -11 -70 -2 -78 12 -17 27 67 103 94 85 5 -3 22 6
37 20 15 14 35 25 45 25 11 0 19 4 19 10 0 5 20 31 45 57 25 26 48 58 51 71 3
12 12 22 20 22 8 0 14 7 14 16 0 14 -3 14 -15 4 -12 -10 -15 -10 -15 3 0 8 -2
22 -5 29 -3 8 8 29 25 48 l31 34 -33 17 c-18 9 -39 14 -46 11 -11 -4 -13 1 -7
19 4 13 13 33 19 44 37 59 49 178 22 216 -8 12 -13 26 -11 33 2 6 -16 27 -39
46 -35 28 -45 44 -53 83 -7 33 -7 47 1 47 19 0 -30 29 -58 34 -48 9 -66 17
-66 32 0 8 -6 14 -14 14 -8 0 -13 8 -12 17 0 10 -3 18 -9 19 -152 16 -158 17
-142 29 15 11 12 13 -20 18 -20 4 -42 2 -48 -3 -16 -13 -36 2 -25 20 15 23 12
50 -5 50 -25 0 -17 19 11 26 19 5 22 9 13 15 -13 8 -5 24 12 24 5 0 8 3 7 6
-2 3 3 13 11 22 12 15 11 17 -3 17 -9 0 -16 5 -16 10 0 6 4 10 8 10 5 0 14 16
22 35 8 19 18 35 23 35 5 0 6 7 3 16 -4 12 -1 14 13 9 11 -3 22 -1 26 5 4 6
-4 10 -19 10 -18 0 -24 4 -20 14 6 17 11 17 114 16 185 -4 233 1 309 26 78 27
195 86 207 105 4 7 -1 7 -15 0 -35 -19 -24 -4 16 20 20 13 32 24 26 26 -6 2 8
35 33 75 52 86 64 99 64 74 0 -15 3 -16 15 -6 28 23 28 1 1 -42 -20 -32 -21
-35 -4 -14 54 68 57 71 66 59 10 -15 36 -11 59 9 23 20 34 23 85 23 23 0 43
-6 45 -12z m1303 -67 c0 -3 -4 -8 -10 -11 -5 -3 -10 -1 -10 4 0 6 5 11 10 11
6 0 10 -2 10 -4z m-1865 -36 c-3 -5 -1 -10 5 -10 6 0 8 -5 4 -11 -4 -8 0 -8
15 0 12 7 21 8 21 2 0 -5 -6 -12 -12 -14 -8 -3 -6 -6 5 -6 9 -1 17 4 17 9 0 6
7 10 15 10 10 0 12 -6 8 -17 -6 -16 -5 -17 12 -3 17 13 18 13 13 -1 -5 -13 -2
-16 14 -11 18 4 19 2 10 -15 -16 -28 -76 -80 -104 -88 -13 -4 -43 -16 -67 -27
-48 -21 -198 -36 -247 -24 -24 6 -27 9 -14 19 8 7 15 18 16 25 1 6 2 17 3 22
0 6 14 10 31 10 23 0 28 4 23 16 -3 9 -8 12 -12 5 -4 -6 -12 -6 -20 -2 -23 15
0 65 32 69 15 2 27 8 27 13 0 5 12 9 28 8 29 -2 164 19 171 27 8 8 12 4 6 -6z
m169 -8 c3 -5 -1 -9 -9 -9 -8 0 -15 4 -15 9 0 4 4 8 9 8 6 0 12 -4 15 -8z
m-644 -216 c0 -2 -7 -7 -16 -10 -8 -3 -12 -2 -9 4 6 10 25 14 25 6z m-60 -716
c0 -5 -5 -10 -11 -10 -5 0 -7 5 -4 10 3 6 8 10 11 10 2 0 4 -4 4 -10z m142
-27 c25 -22 23 -31 -7 -25 -16 3 -25 11 -25 23 0 23 8 24 32 2z m-52 -93 c0
-5 -9 -10 -21 -10 -11 0 -17 5 -14 10 3 6 13 10 21 10 8 0 14 -4 14 -10z
m-924 -21 c15 -17 16 -23 5 -41 -7 -11 -8 -17 -2 -13 12 7 15 -7 4 -18 -10
-11 -43 24 -43 45 0 10 -5 18 -11 18 -8 0 -8 5 1 15 16 20 23 19 46 -6z m809
-7 c-3 -3 -11 0 -18 7 -9 10 -8 11 6 5 10 -3 15 -9 12 -12z m-1005 -57 c0 -2
-7 -5 -15 -9 -9 -3 -15 0 -15 9 0 9 6 12 15 9 8 -4 15 -7 15 -9z m137 3 c6 -7
16 -30 23 -52 11 -35 10 -45 -14 -106 -27 -69 -63 -107 -92 -96 -10 4 -14 -2
-14 -19 0 -14 -6 -25 -12 -26 -7 0 -21 -2 -32 -4 -17 -3 -18 1 -12 42 7 54 75
201 104 227 12 11 22 25 22 33 0 16 14 17 27 1z m98 -18 c3 -5 1 -10 -4 -10
-6 0 -11 5 -11 10 0 6 2 10 4 10 3 0 8 -4 11 -10z m-250 -70 c-4 -17 -10 -30
-15 -30 -14 0 -17 33 -7 64 8 24 11 26 19 12 5 -9 6 -30 3 -46z m926 27 c29 4
41 0 57 -18 15 -15 25 -19 34 -12 7 5 29 6 48 2 19 -3 31 -7 26 -8 -5 0 -2 -9
7 -18 8 -10 16 -22 18 -28 4 -23 12 -35 19 -30 4 3 7 -3 6 -13 0 -10 5 -16 15
-14 13 2 16 -6 15 -35 -1 -31 2 -37 17 -35 21 4 22 -11 1 -29 -10 -8 -13 -21
-9 -37 7 -30 -11 -89 -32 -100 -10 -6 -16 -26 -17 -54 -1 -25 -9 -53 -17 -61
-17 -17 -69 -18 -63 -2 3 6 -10 16 -28 23 -31 12 -35 11 -55 -13 -13 -15 -23
-23 -23 -20 0 3 -6 0 -14 -7 -8 -7 -12 -16 -10 -20 2 -3 -10 -14 -27 -22 -23
-12 -36 -13 -45 -5 -10 8 -13 4 -16 -17 -2 -15 -9 -30 -17 -32 -8 -3 -11 0 -8
5 4 6 -7 10 -25 11 -38 1 -88 21 -88 34 0 6 -8 4 -17 -3 -15 -12 -16 -12 -9 6
14 37 17 50 5 28 -16 -31 -31 -29 -23 2 7 30 -6 33 -24 5 -7 -11 -21 -20 -32
-20 -13 0 -20 7 -20 20 0 11 4 20 9 20 15 0 22 32 9 47 -6 8 -20 12 -30 10
-14 -4 -18 1 -18 19 0 13 6 24 13 24 8 0 8 3 2 8 -12 8 -12 29 0 56 6 13 3 21
-8 28 -19 10 -23 53 -7 63 6 3 10 13 10 22 0 17 7 26 60 78 17 17 43 42 57 58
15 15 33 27 42 27 18 1 57 27 54 38 -1 4 5 6 12 4 8 -1 27 4 42 12 16 8 36 11
48 6 11 -4 36 -5 56 -3z m-1006 -49 c10 -53 12 -65 20 -97 10 -41 -4 -18 -25
40 -21 57 -26 99 -11 99 5 0 12 -19 16 -42z m267 -229 c-5 -33 -10 -35 -29
-16 -14 13 -14 19 -3 32 18 22 36 13 32 -16z m73 -80 c15 -23 24 -79 12 -72
-28 17 -50 40 -58 61 -5 12 -15 22 -24 22 -8 0 -15 5 -15 10 0 6 7 10 15 10 8
0 15 6 15 13 0 7 8 24 17 37 l18 25 6 -47 c4 -26 10 -52 14 -59z m-215 -4 l22
-23 -22 -12 c-18 -10 -21 -9 -17 2 2 7 -2 20 -9 28 -7 9 -16 36 -19 60 l-6 45
15 -38 c8 -22 24 -49 36 -62z m230 -351 c0 -6 -9 -22 -19 -35 -16 -21 -27 -24
-71 -23 -57 2 -85 18 -60 34 14 9 42 14 66 11 6 -1 16 4 22 11 13 16 62 17 62
2z m1242 -136 c4 -12 105 -16 151 -6 33 8 35 -5 5 -26 -28 -20 -59 -19 -122 2
-44 15 -74 42 -48 42 6 0 12 -5 14 -12z m143 -189 c114 3 170 0 177 -12 4 -7
8 -8 8 -2 0 5 11 -7 25 -28 24 -35 56 -52 86 -46 32 6 58 -12 65 -46 3 -19 4
-40 1 -47 -2 -7 0 -23 4 -35 6 -17 5 -23 -6 -23 -7 0 -17 -9 -20 -20 -7 -23
-21 -26 -28 -7 -4 7 -6 6 -6 -5 -1 -9 4 -18 10 -20 7 -2 7 -12 1 -28 -9 -22
-11 -23 -17 -7 -6 13 -10 15 -15 7 -5 -8 -14 0 -25 24 -21 43 -29 47 -21 9 5
-25 4 -26 -5 -7 -6 12 -21 27 -33 34 -11 6 -34 29 -51 50 -28 37 -33 39 -85
40 -30 0 -75 6 -100 14 -25 7 -64 13 -88 12 -31 -1 -42 3 -43 14 0 13 -1 13
-7 0 -7 -15 -34 -17 -92 -7 -36 6 -36 6 -20 17 8 5 23 7 32 4 28 -8 45 44 21
62 -12 10 -13 12 -3 9 9 -3 22 7 33 26 l18 32 72 -8 c40 -4 90 -7 112 -6z
m189 -330 c4 -21 10 -29 20 -26 8 3 16 -2 19 -14 4 -16 1 -19 -13 -14 -21 7
-37 -24 -18 -37 10 -5 8 -8 -5 -8 -12 0 -17 6 -15 18 1 9 0 22 -3 27 -4 6 -9
27 -13 48 -5 28 -4 37 7 37 8 0 17 -14 21 -31z m76 -35 c0 -16 -22 1 -36 29
l-17 32 27 -28 c14 -15 26 -30 26 -33z m80 46 c0 -5 -2 -10 -4 -10 -3 0 -8 5
-11 10 -3 6 -1 10 4 10 6 0 11 -4 11 -10z m-50 -30 c0 -5 -2 -10 -4 -10 -3 0
-8 5 -11 10 -3 6 -1 10 4 10 6 0 11 -4 11 -10z m608 -562 c-14 -12 -19 -21
-12 -24 13 -6 7 -42 -11 -64 -7 -8 -15 -22 -19 -30 -4 -8 0 -6 8 5 16 18 17
18 45 2 19 -11 32 -14 36 -7 3 5 11 10 16 10 12 0 29 -42 21 -54 -3 -5 -6 -30
-7 -55 -2 -50 -19 -125 -42 -181 -7 -19 -14 -39 -15 -45 0 -5 -9 -16 -19 -23
-14 -9 -17 -20 -13 -38 5 -18 -2 -34 -22 -61 -16 -21 -29 -42 -29 -48 -2 -24
-19 -47 -42 -56 -13 -5 -23 -15 -22 -21 4 -19 -41 -88 -57 -88 -18 0 -61 -44
-56 -58 2 -6 -14 -22 -35 -35 -21 -14 -49 -36 -62 -51 -21 -22 -22 -26 -7 -26
11 0 14 -4 10 -12 -4 -6 -6 -35 -5 -64 1 -29 -2 -55 -8 -59 -6 -3 -9 -11 -6
-16 4 -5 -1 -12 -9 -15 -9 -3 -16 -14 -16 -25 0 -10 -8 -23 -17 -28 -15 -9
-16 -12 -4 -20 12 -8 11 -13 -10 -30 -13 -11 -29 -20 -35 -21 -6 0 -17 -6 -23
-14 -10 -12 -5 -13 30 -5 49 11 58 6 36 -19 -10 -10 -17 -23 -17 -29 0 -6 -6
-14 -12 -16 -8 -3 -5 -6 6 -6 15 -1 16 -4 6 -15 -6 -8 -18 -12 -26 -9 -8 3
-23 -2 -34 -12 -11 -10 -26 -15 -34 -12 -23 9 -76 -13 -77 -31 -1 -15 -2 -15
-6 -1 -3 13 -14 15 -51 13 -37 -3 -51 -9 -66 -30 -13 -18 -21 -22 -26 -14 -4
7 -13 9 -20 5 -9 -6 -9 -9 0 -15 17 -10 5 -42 -14 -38 -7 2 -30 -12 -49 -29
l-36 -32 -48 77 c-26 42 -88 131 -138 197 -93 124 -113 155 -119 192 -5 26
-45 73 -63 73 -7 0 -13 4 -13 10 0 5 6 7 14 4 10 -4 14 1 13 15 -1 13 -6 20
-14 17 -7 -3 -15 0 -19 6 -4 7 -3 8 4 4 16 -10 15 7 0 23 -11 11 -10 13 5 8 9
-4 17 -2 17 3 0 6 -10 10 -22 10 -30 0 -74 31 -72 50 0 8 2 21 2 29 1 8 10 11
22 8 10 -3 21 0 22 5 4 12 58 -11 58 -24 0 -5 4 -7 8 -4 4 2 14 1 22 -5 12 -7
11 -9 -4 -9 -18 0 -14 -14 5 -16 5 -1 12 -2 15 -3 3 0 -8 -12 -23 -26 l-28
-24 26 -1 c15 0 33 -8 40 -17 12 -15 12 -16 -3 -10 -20 7 -34 -8 -16 -17 7 -4
3 -4 -9 -2 -22 4 -33 -17 -15 -28 12 -7 53 5 47 14 -10 17 14 20 30 4 8 -9 24
-14 34 -11 10 2 25 0 34 -4 10 -6 18 -5 22 1 3 5 1 10 -5 10 -7 0 -10 6 -7 14
6 16 -19 30 -35 19 -7 -4 -8 -1 -4 6 5 8 29 12 65 11 79 -2 91 -1 91 9 0 4
-11 6 -25 3 -15 -2 -25 0 -25 7 0 6 -10 16 -22 21 -22 8 -22 9 5 9 16 1 26 5
22 11 -3 6 -1 10 4 10 6 0 11 -6 11 -12 0 -7 9 -2 20 12 10 14 22 22 25 18 4
-4 24 2 43 13 20 10 51 19 68 19 17 0 37 7 44 15 15 19 8 19 -75 1 -36 -8 -59
-18 -57 -25 3 -17 -34 4 -41 23 -7 17 8 30 22 21 5 -3 12 -1 16 5 4 6 -5 10
-19 10 -14 0 -26 -4 -26 -9 0 -5 -7 -12 -16 -15 -8 -3 -12 -2 -9 4 3 6 3 10
-2 11 -4 0 -17 3 -28 6 -11 2 -34 5 -52 6 -17 1 -30 4 -28 6 2 2 -2 10 -10 18
-17 16 -20 37 -5 28 6 -3 10 -1 10 4 0 6 -4 11 -10 11 -5 0 -10 4 -10 8 0 10
41 9 57 -1 9 -6 11 -3 6 9 -5 14 -1 15 28 9 l34 -6 -30 20 c-16 12 -37 21 -45
22 -9 0 -6 4 7 9 12 5 34 7 50 4 27 -4 27 -4 8 12 -20 16 -20 16 3 9 15 -4 22
-3 20 6 -2 6 13 16 32 21 83 20 110 29 124 43 8 8 38 16 68 19 76 5 244 82
242 110 -1 11 4 15 15 11 9 -3 26 2 37 10 18 13 18 14 1 15 -23 0 -13 18 11
19 42 2 62 6 62 11 0 6 75 42 85 41 3 -1 14 8 25 19 12 12 25 18 30 15 5 -3
11 -1 15 5 4 6 -4 10 -19 10 -14 0 -29 -6 -33 -12 -12 -19 -107 -64 -157 -74
-11 -2 -24 3 -30 11 -10 13 -17 13 -56 0 l-45 -15 40 1 c59 1 60 1 40 -21 -10
-11 -28 -20 -39 -20 -20 1 -19 2 4 15 18 10 20 14 8 15 -9 0 -23 -6 -30 -13
-7 -7 -31 -20 -52 -29 -38 -15 -39 -16 -18 -27 14 -8 22 -8 22 -1 0 13 27 13
35 1 3 -5 0 -13 -6 -17 -8 -4 -9 -3 -5 4 4 7 3 12 -3 12 -5 0 -11 -5 -13 -12
-2 -6 -19 -11 -36 -10 -25 0 -32 -3 -30 -16 2 -14 -6 -17 -44 -17 -26 0 -53
-6 -60 -13 -15 -15 -32 -16 -23 -1 5 7 -4 8 -28 4 -19 -4 -37 -3 -40 2 -3 4
15 9 40 10 50 2 58 6 49 22 -5 7 -16 7 -34 1 -26 -10 -26 -10 -7 6 20 16 19
16 -5 11 -14 -2 -34 -8 -44 -12 -14 -6 -17 -5 -12 3 5 8 -3 12 -26 13 l-33 2
35 6 c19 3 36 3 38 -1 4 -9 53 1 66 13 5 4 -9 11 -30 14 -22 4 -43 8 -49 9 -5
1 20 8 55 15 36 7 70 17 76 22 6 5 35 7 65 5 49 -4 57 -2 87 25 19 17 31 33
27 37 -4 4 -13 -1 -20 -11 -13 -19 -90 -43 -79 -26 3 5 14 9 25 9 11 0 18 4
15 9 -6 8 81 53 294 154 63 29 121 61 129 70 7 9 17 15 21 12 4 -2 16 3 26 13
11 9 42 35 69 57 28 22 52 44 55 50 2 5 6 -1 8 -14 3 -17 -4 -31 -20 -43z
m-127 29 c-10 -9 -11 -8 -5 6 3 10 9 15 12 12 3 -3 0 -11 -7 -18z m-594 -343
c-3 -3 -12 -4 -19 -1 -8 3 -5 6 6 6 11 1 17 -2 13 -5z m-222 -34 c3 -5 -1 -10
-10 -10 -9 0 -13 5 -10 10 3 6 8 10 10 10 2 0 7 -4 10 -10z m285 -140 c0 -5
-5 -10 -11 -10 -5 0 -7 5 -4 10 3 6 8 10 11 10 2 0 4 -4 4 -10z m-336 -101
c-4 -7 -44 0 -44 7 0 2 11 3 24 2 14 -1 23 -5 20 -9z m-54 -72 c10 -4 8 -6 -6
-6 -12 -1 -25 6 -28 15 -5 13 -3 14 6 7 7 -6 20 -13 28 -16z m-51 -95 c-12 -2
-29 4 -38 13 -15 15 -14 16 13 9 23 -5 27 -4 22 7 -4 8 0 5 9 -6 15 -19 15
-20 -6 -23z m599 -641 c16 -10 -44 -42 -65 -34 -22 9 -15 23 12 23 14 0 25 5
25 10 0 12 10 13 28 1z m-165 -25 c4 -10 1 -13 -8 -9 -8 3 -12 9 -9 14 7 12
11 11 17 -5z m-65 -96 c13 0 13 -3 4 -12 -10 -10 -15 -10 -22 2 -5 8 -9 20 -9
25 0 6 3 4 6 -2 2 -7 12 -13 21 -13z m-46 -819 c-10 -14 -27 -28 -38 -30 -25
-5 -82 28 -90 51 -9 28 4 35 21 11 15 -22 55 -38 55 -22 0 5 5 9 10 9 6 0 17
6 24 12 11 11 11 15 -3 26 -15 13 -15 13 0 9 12 -4 19 3 25 26 8 31 8 30 12
-17 2 -37 -2 -56 -16 -75z"/>
<path d="M4745 7840 c-4 -6 -10 -8 -14 -5 -5 2 -16 -4 -25 -14 -29 -32 -1 -32
29 -1 16 17 26 30 22 30 -3 0 -9 -5 -12 -10z"/>
<path d="M5130 7834 c0 -3 7 -12 15 -20 19 -19 41 -8 24 12 -11 14 -39 20 -39
8z"/>
<path d="M4940 7168 c-1 -5 -3 -14 -4 -20 0 -7 -8 -13 -16 -13 -8 0 -18 -4
-22 -10 -4 -5 -8 0 -8 13 0 30 -14 28 -30 -5 -12 -26 -13 -27 -21 -8 -4 11 -8
14 -8 8 -1 -7 -6 -13 -12 -13 -5 0 -8 4 -5 9 4 5 -3 7 -14 4 -11 -3 -22 -9
-25 -13 -3 -5 -14 -6 -24 -3 -21 5 -37 -12 -21 -22 5 -3 10 -11 10 -17 0 -6
-6 -5 -16 2 -21 18 -80 25 -66 8 6 -7 11 -17 12 -23 0 -5 11 -21 23 -35 24
-28 30 -48 20 -70 -10 -22 -13 -107 -7 -168 4 -41 13 -61 35 -84 16 -17 29
-34 29 -38 0 -6 64 -40 76 -40 3 0 2 5 -1 10 -3 6 -4 10 -2 10 6 0 88 -29 107
-37 58 -27 292 -11 274 18 -3 5 4 9 15 9 12 0 21 4 21 9 0 16 79 30 116 19 19
-5 44 -6 56 -2 21 6 21 7 3 20 -15 11 -16 16 -5 29 8 9 10 25 5 42 -12 44 -12
63 -1 63 6 0 4 5 -4 10 -20 13 -33 13 -25 0 3 -5 3 -10 -2 -10 -11 0 -37 60
-29 68 9 9 104 4 123 -7 9 -5 25 -4 38 3 32 15 24 53 -24 126 -42 64 -48 70
-78 70 -13 0 -23 6 -23 13 0 12 -21 28 -69 54 -31 17 -32 17 -21 -12 9 -24 8
-25 -18 -19 -15 4 -35 11 -45 16 -9 5 -17 5 -16 1 4 -25 -2 -35 -14 -25 -7 6
-26 16 -41 22 -25 9 -27 8 -17 -3 19 -24 -24 -28 -50 -6 -24 21 -37 25 -112
33 -30 4 -46 2 -42 -4 3 -6 2 -10 -4 -10 -5 0 -12 8 -14 18 -3 9 -6 14 -7 10z
m180 -328 c0 -5 -2 -10 -4 -10 -3 0 -8 5 -11 10 -3 6 -1 10 4 10 6 0 11 -4 11
-10z m-160 -22 c0 -16 -3 -19 -11 -11 -6 6 -8 16 -5 22 11 17 16 13 16 -11z
m125 12 c3 -5 -3 -10 -14 -10 -12 0 -21 5 -21 10 0 6 6 10 14 10 8 0 18 -4 21
-10z m135 -80 c-15 -10 -50 -14 -50 -5 0 2 5 16 12 30 l12 26 20 -21 c18 -18
19 -22 6 -30z m-433 11 c10 -15 9 -22 -2 -31 -12 -10 -15 -9 -15 4 0 9 -3 15
-7 15 -20 -3 -24 2 -13 16 16 20 23 19 37 -4z m393 -34 c44 1 86 -27 77 -51
-5 -12 -21 -16 -71 -16 -75 0 -129 16 -106 30 8 6 25 10 38 10 12 0 22 5 22
10 0 6 -4 10 -10 10 -5 0 -10 5 -10 11 0 5 5 7 12 3 7 -4 28 -7 48 -7z"/>
<path d="M5526 7081 c-3 -5 1 -14 8 -20 12 -10 13 -8 9 8 -6 23 -9 25 -17 12z"/>
<path d="M5610 7030 c0 -5 5 -10 11 -10 5 0 7 5 4 10 -3 6 -8 10 -11 10 -2 0
-4 -4 -4 -10z"/>
<path d="M5630 6995 c-7 -8 -17 -12 -24 -8 -6 3 -5 0 2 -8 11 -12 14 -12 21 0
5 7 14 11 20 7 7 -5 9 -1 5 8 -8 20 -9 20 -24 1z"/>
<path d="M5566 6965 c4 -8 10 -15 16 -15 5 0 7 -10 4 -22 l-6 -23 11 22 c9 17
9 26 -1 38 -16 19 -31 19 -24 0z"/>
<path d="M5626 6963 c-14 -4 -17 -11 -12 -35 3 -17 6 -37 6 -44 0 -8 7 -14 15
-14 8 0 12 6 9 14 -3 8 4 21 16 29 20 14 20 15 3 34 -10 11 -26 18 -37 16z"/>
<path d="M4465 7795 c-16 -8 -23 -14 -14 -15 8 0 24 7 35 15 23 18 18 18 -21
0z"/>
<path d="M3700 6456 c0 -9 7 -16 16 -16 17 0 14 22 -4 28 -7 2 -12 -3 -12 -12z"/>
<path d="M3596 6345 c-3 -8 -1 -15 4 -15 6 0 10 7 10 15 0 8 -2 15 -4 15 -2 0
-6 -7 -10 -15z"/>
<path d="M3996 6213 c-6 -14 -5 -15 5 -6 7 7 10 15 7 18 -3 3 -9 -2 -12 -12z"/>
<path d="M3797 6173 c-14 -13 -7 -53 9 -53 13 0 14 3 4 15 -7 8 -10 22 -6 30
6 16 3 19 -7 8z"/>
<path d="M5280 4535 c-7 -8 -9 -15 -4 -15 5 0 2 -5 -6 -10 -22 -14 5 -13 32 1
16 9 19 8 16 -3 -3 -7 -14 -14 -26 -16 -12 -2 -22 -7 -22 -12 0 -6 11 -5 26 0
14 6 29 8 34 5 4 -3 10 2 13 9 3 8 1 17 -6 20 -9 3 -8 8 3 16 12 9 10 10 -9 5
-14 -4 -26 -2 -31 4 -5 9 -10 8 -20 -4z"/>
<path d="M5015 4460 c-3 -5 -1 -10 4 -10 6 0 11 5 11 10 0 6 -2 10 -4 10 -3 0
-8 -4 -11 -10z"/>
<path d="M5290 4460 c0 -5 5 -10 11 -10 5 0 7 5 4 10 -3 6 -8 10 -11 10 -2 0
-4 -4 -4 -10z"/>
<path d="M5128 4436 c-28 -21 -21 -28 12 -11 17 9 30 18 30 20 0 10 -25 4 -42
-9z"/>
<path d="M5020 4411 c0 -5 6 -13 13 -19 14 -11 57 2 57 17 0 7 -9 7 -26 1 -32
-13 -37 -12 -29 0 3 6 1 10 -4 10 -6 0 -11 -4 -11 -9z"/>
<path d="M5164 4365 c-10 -8 -14 -15 -8 -15 5 0 19 7 30 15 10 8 14 15 8 15
-5 0 -19 -7 -30 -15z"/>
<path d="M4765 4340 c-3 -6 1 -7 9 -4 18 7 21 14 7 14 -6 0 -13 -4 -16 -10z"/>
<path d="M4885 4340 c-3 -5 -2 -10 4 -10 5 0 13 5 16 10 3 6 2 10 -4 10 -5 0
-13 -4 -16 -10z"/>
<path d="M5476 4313 c-6 -14 -5 -15 5 -6 7 7 10 15 7 18 -3 3 -9 -2 -12 -12z"/>
<path d="M4735 4290 c-3 -5 1 -10 9 -10 9 0 16 5 16 10 0 6 -4 10 -9 10 -6 0
-13 -4 -16 -10z"/>
<path d="M4772 4281 c-28 -24 -28 -31 2 -25 43 8 89 31 77 39 -7 4 -20 0 -30
-9 -24 -21 -49 -22 -31 -1 17 21 7 19 -18 -4z"/>
<path d="M4626 4135 l-29 -12 29 -6 c18 -3 42 2 64 13 l35 18 -35 -1 c-20 0
-49 -6 -64 -12z"/>
<path d="M4532 4098 c-7 -7 -12 -15 -12 -19 0 -11 49 2 61 17 9 11 7 14 -13
14 -13 0 -29 -5 -36 -12z"/>
<path d="M4528 4033 c6 -2 18 -2 25 0 6 3 1 5 -13 5 -14 0 -19 -2 -12 -5z"/>
<path d="M4618 4003 c6 -2 18 -2 25 0 6 3 1 5 -13 5 -14 0 -19 -2 -12 -5z"/>
<path d="M5275 3950 c-3 -5 -2 -10 4 -10 5 0 13 5 16 10 3 6 2 10 -4 10 -5 0
-13 -4 -16 -10z"/>
<path d="M4490 3740 c0 -5 5 -10 11 -10 5 0 7 5 4 10 -3 6 -8 10 -11 10 -2 0
-4 -4 -4 -10z"/>
<path d="M5988 6699 c-27 -15 -22 -36 12 -53 26 -12 30 -12 30 0 0 8 5 14 11
14 6 0 9 10 7 23 -3 25 -33 33 -60 16z"/>
<path d="M2950 5930 c0 -5 5 -10 10 -10 6 0 10 5 10 10 0 6 -4 10 -10 10 -5 0
-10 -4 -10 -10z"/>
<path d="M6061 2340 c-24 -5 -48 -7 -54 -3 -6 3 -8 2 -4 -3 3 -5 -12 -18 -34
-28 -21 -10 -59 -38 -83 -62 -80 -76 -97 -204 -41 -299 24 -43 55 -63 75 -50
5 3 10 11 10 16 0 25 31 39 88 39 44 0 63 4 75 18 18 20 23 92 7 92 -5 0 -10
7 -10 15 0 8 -3 16 -7 16 -14 3 -58 9 -68 11 -6 1 -12 9 -12 18 -1 13 9 16 60
16 58 -1 62 0 60 22 -2 12 2 22 7 22 6 0 10 7 10 15 0 8 4 15 10 15 5 0 7 -6
4 -14 -3 -8 -1 -17 4 -20 6 -3 8 -15 5 -26 -6 -21 -3 -22 80 -23 33 0 38 -3
35 -20 -2 -17 -11 -22 -41 -24 -20 -1 -44 -9 -53 -17 -25 -25 -29 -81 -9 -112
17 -26 17 -28 -3 -43 -24 -18 -41 -114 -22 -126 6 -3 8 -10 5 -15 -8 -12 48
-22 81 -14 50 13 96 45 88 63 -3 9 -10 30 -15 48 -6 18 -14 35 -20 38 -14 9
-1 25 16 19 8 -3 19 -21 25 -40 6 -19 16 -34 22 -34 25 0 95 88 106 133 38
150 -13 255 -163 333 -56 29 -158 40 -234 24z m206 -416 c-3 -3 -12 -4 -19 -1
-8 3 -5 6 6 6 11 1 17 -2 13 -5z"/>
<path d="M5980 1920 c-11 -11 -20 -26 -20 -34 0 -8 -4 -16 -9 -18 -5 -1 -12
-15 -16 -29 -6 -25 -2 -29 50 -53 70 -32 81 -32 99 -3 21 30 24 136 5 148 -26
16 -88 10 -109 -11z"/>
<path d="M6158 1652 c-21 -4 -24 -32 -5 -32 7 0 21 6 31 13 15 11 16 15 5 19
-8 2 -22 3 -31 0z"/>
</g>
</svg>
